<?xml version="1.0" encoding="UTF-8"?>
<svg id="Capa_2" data-name="Capa 2" xmlns="http://www.w3.org/2000/svg" viewBox="0 0 288.41 280.96">
  <g id="Capa_1-2" data-name="Capa 1">
    <g>
      <path d="M209.5,136.02c-11.1-17.81-22.29-36.76-33.39-56.85-11.83-21.41-22.51-42.22-32.16-62.25-9.09,19.77-19.5,40.63-31.46,62.25-11.31,20.45-22.76,39.37-34.03,56.75h-.07s.04.01.05.02c-.02.03-.04.05-.05.08h.31c30.99,9.42,57.04,32.66,67.52,63.47,2.83-4.93,8.86-15.45,12.94-21.62,11.88-18,29.74-34.82,50.33-41.85Z"/>
      <path d="M59.03,140.62h-30.09c-.92,28.47,14.56,55.28,37.01,71.94,12.83,9.53,29.34,16.46,41.79,26.4,5.96,4.76,10.66,12.31,15.55,16.54,1.7,1.47,2.26,1.74,4.63,1.39v-38.09c0-33.18-33.27-78.18-68.88-78.18Z"/>
      <path d="M258.05,160.39c1.57-6.43,2.54-13.13,2.27-19.78h-30.09c-19.69,0-44.29,22.32-53.91,38.35-4.62,7.7-14.98,32.97-14.98,41.17v38.09c2.59.61,2.57-.94,3.77-2.25,32.64-35.77,80.23-43.66,92.94-95.58Z"/>
      <path d="M101.16,79.14h-52.83c-2.16,2.13-4.55,4.85-6.83,8.24-3.98,5.93-6.07,11.62-7.21,15.82h53.5l13.38-24.06Z"/>
      <path d="M28.9,123.58c-.23,3.67.21,6.77.71,9.02,12.71-.07,25.41-.15,38.12-.22l13.38-19.82H31.61c-1.08,2.42-2.41,6.22-2.71,11.03Z"/>
      <path d="M240.13,76.47h-52.83l13.38,24.06h53.5c-1.14-4.2-3.23-9.89-7.21-15.82-2.28-3.39-4.67-6.11-6.83-8.24Z"/>
      <path d="M258.85,129.92c.5-2.25.94-5.35.71-9.02-.3-4.81-1.64-8.61-2.71-11.03h-49.49l13.38,19.82c12.71.07,25.41.15,38.12.22Z"/>
      <path d="M284.7,112.81l-.06-.24c-10.87-44.65-37.02-80.37-79.36-99.58-15.2-6.84-31.36-10.91-48.23-12.4-1.63-.06-9.67-.64-12.55-.59-2.92.06-11.41.52-13.15.59-16.87,1.49-33.03,5.56-48.23,12.4C40.79,32.2,14.64,67.92,3.77,112.57l-.06.24c-18.45,72.18,34.17,151.97,106.31,167.47,22.6,5.53,5.54-24.28-2.23-30.62-5.81-5.73-12.87-10.56-20.22-15.13-11.3-7.04-23.14-13.3-33.11-22.19-24.95-22.05-36.82-55.03-34.26-88.2,3.25-32.69,28.95-74.28,63.91-89.48,3.15-1.29,12.43-5.72,19.41-7.73,3.16-.91,4.94,3.5,2.06,5.08-6.11,3.36-15.07,6.67-17.25,7.77-11.85,4.75-23.06,13.63-31.62,22.31-1.95,2.34-6.52,6.74-1.16,7.55,11.12.54,33.7.08,44.15.2,3.78.12,6.74-.68,8.63-4.24,7.18-11.64,32.82-58.95,33.16-59.68.34-.74,1.8-3.24,2.77-3.18.63.04,1.1.74,2.03,2.25.63,1.02,1.19,2.08,1.67,3.18,6.37,14.34,25.3,46.42,32.09,57.43,1.88,3.57,4.85,4.36,8.63,4.24,10.46-.12,33.03.34,44.15-.2,5.37-.81.8-5.21-1.16-7.55-8.55-8.68-19.76-17.56-31.62-22.31-2.18-1.1-11.14-4.42-17.25-7.77-2.88-1.58-1.11-5.99,2.06-5.08,6.99,2.01,16.26,6.44,19.41,7.73,34.96,15.21,60.66,56.79,63.91,89.48,2.56,33.16-9.3,66.15-34.26,88.2-9.97,8.89-21.81,15.15-33.11,22.19-7.35,4.57-14.41,9.4-20.22,15.13-7.77,6.35-24.82,36.15-2.23,30.62,72.14-15.49,124.76-95.29,106.31-167.47Z"/>
    </g>
  </g>
</svg>